# xmcd
#
# Track frame offsets:
#	150
#	16647
#	31172
#	46007
#	60885
#	70450
#	85254
#	99560
#	112967
#	127280
#	142052
#	158417
#	173505
#	188455
#
# Disc length: 2700 seconds
#
# Revision: 0
# Processed by: cddbd v1.5.2PL0 Copyright (c) Steve Scherf et al.
# Submitted via: EasyCDDAExtractor 16.0.6.1
#
DISCID=a40a8a0e
DTITLE=Συλλογικός δίσκος - Πάμε στα κλαρίνα
DYEAR=1997
DGENRE=Παραδοσιακή
TTITLE0=Ζαχαρόπουλος Ζαχαρίας - Ο πλάτανος [παραδοσιακό]
TTITLE1=Ζαχαρόπουλος Ζαχαρίας - Νά 'ταν τα νιάτα δυό φορές [παραδοσιακό]
TTITLE2=Ζαχαρόπουλος Ζαχαρίας - Ένας αετός [παραδοσιακό]
TTITLE3=Παύλου Θανάσης - Ιτιά ιτιά [παραδοσιακό]
TTITLE4=Μάγκελ Έλενα - Νά ΄χα νεράντζι νά 'ριχνα [παραδοσιακό]
TTITLE5=Ζαχαρόπουλος Ζαχαρίας - Μαντήλι καλαματιανό [παραδοσιακό]
TTITLE6=Ζαχαρόπουλος Ζαχαρίας - Κόφ' την Ελένη την ελιά [παραδοσιακό]
TTITLE7=Μάγκελ Έλενα - Βρύση μου μαλαματένια [παραδοσιακό]
TTITLE8=Μάγκελ Έλενα - Στις Αρκαδίας τον πλάτανο [παραδοσιακό]
TTITLE9=Ζαχαρόπουλος Ζαχαρίας - Αράχωβα [παραδοσιακό]
TTITLE10=Άνευ ερμηνευτού - Σβαρνιάρα [παραδοσιακό]
TTITLE11=Ζαχαρόπουλος Ζαχαρίας - Στα Ρίτσα βγαίνει ένα νερό [παραδοσιακό]
TTITLE12=Μάγκελ Έλενα - Όλα τα πουλάκια [παραδοσιακό]
TTITLE13=Ζαχαρόπουλος Ζαχαρίας - Κυρά δασκάλα [παραδοσιακό]
EXTD=
EXTT0=
EXTT1=
EXTT2=
EXTT3=
EXTT4=
EXTT5=
EXTT6=
EXTT7=
EXTT8=
EXTT9=
EXTT10=
EXTT11=
EXTT12=
EXTT13=
PLAYORDER=
